<?xml version="1.0" encoding="UTF-8" standalone="no"?>
<!-- Created with Inkscape (http://www.inkscape.org/) -->

<svg
   version="1.1"
   id="svg2"
   xml:space="preserve"
   width="793.70074"
   height="170.07874"
   viewBox="0 0 793.70074 170.07874"
   sodipodi:docname="k_quant_logo.svg"
   inkscape:version="1.1.2 (0a00cf5339, 2022-02-04)"
   xmlns:inkscape="http://www.inkscape.org/namespaces/inkscape"
   xmlns:sodipodi="http://sodipodi.sourceforge.net/DTD/sodipodi-0.dtd"
   xmlns="http://www.w3.org/2000/svg"
   xmlns:svg="http://www.w3.org/2000/svg"><defs
     id="defs6" /><sodipodi:namedview
     id="namedview4"
     pagecolor="#ffffff"
     bordercolor="#666666"
     borderopacity="1.0"
     inkscape:pageshadow="2"
     inkscape:pageopacity="0.0"
     inkscape:pagecheckerboard="0"
     showgrid="false"
     inkscape:zoom="1.8407441"
     inkscape:cx="396.85037"
     inkscape:cy="85.019963"
     inkscape:window-width="1846"
     inkscape:window-height="1016"
     inkscape:window-x="74"
     inkscape:window-y="27"
     inkscape:window-maximized="1"
     inkscape:current-layer="g8" /><g
     id="g8"
     inkscape:groupmode="layer"
     inkscape:label="k_quant_logo"
     transform="matrix(1.3333333,0,0,1.3333333,0,8.2519684e-6)"><g
       id="g10"><text
         transform="translate(91.357871,104.35365)"
         style="font-variant:normal;font-weight:normal;font-size:172.297px;font-family:FreeMono;-inkscape-font-specification:FreeMono;writing-mode:lr-tb;fill:#000000;fill-opacity:1;fill-rule:nonzero;stroke:none"
         id="text14"><tspan
           x="0 103.37839 206.75677 310.13516 413.51355"
           y="0"
           sodipodi:role="line"
           id="tspan12">Quant</tspan></text><g
         id="g16"><path
           d="m 11.559,13.125 c 0,0 38.769,-12.922 31.984,7.879 C 35.426,45.898 5.34,52.238 15.41,67.613 c 10.043,15.325 -3.851,31.66 -3.851,31.66"
           style="fill:none;stroke:#800000;stroke-width:5.94224;stroke-linecap:butt;stroke-linejoin:miter;stroke-miterlimit:4;stroke-dasharray:none;stroke-opacity:1"
           id="path18" /></g><g
         id="g20"><path
           d="M 71.027,12.785 15.867,60.508 75,100.5"
           style="fill:none;stroke:#3ea8f0;stroke-width:5.94224;stroke-linecap:butt;stroke-linejoin:miter;stroke-miterlimit:4;stroke-dasharray:none;stroke-opacity:1"
           id="path22" /></g><g
         id="g24"><path
           d="m 20.668,12.902 c 0,4.348 -3.527,7.875 -7.875,7.875 -4.348,0 -7.871,-3.527 -7.871,-7.875 0,-4.347 3.523,-7.871 7.871,-7.871 4.348,0 7.875,3.524 7.875,7.871 z"
           style="fill:#800000;fill-opacity:1;fill-rule:nonzero;stroke:#000000;stroke-width:0.976807;stroke-linecap:butt;stroke-linejoin:miter;stroke-miterlimit:4;stroke-dasharray:none;stroke-opacity:1"
           id="path26" /></g><g
         id="g28"><path
           d="m 20.668,98.707 c 0,4.348 -3.527,7.875 -7.875,7.875 -4.348,0 -7.871,-3.527 -7.871,-7.875 0,-4.348 3.523,-7.871 7.871,-7.871 4.348,0 7.875,3.523 7.875,7.871 z"
           style="fill:#800000;fill-opacity:1;fill-rule:nonzero;stroke:#000000;stroke-width:0.976807;stroke-linecap:butt;stroke-linejoin:miter;stroke-miterlimit:4;stroke-dasharray:none;stroke-opacity:1"
           id="path30" /></g><g
         id="g32"><path
           d="m 78.836,98.699 c 0,4.348 -3.524,7.871 -7.875,7.871 -4.348,0 -7.871,-3.523 -7.871,-7.871 0,-4.347 3.523,-7.871 7.871,-7.871 4.351,0 7.875,3.524 7.875,7.871 z"
           style="fill:#3ea8f0;fill-opacity:1;fill-rule:nonzero;stroke:#000000;stroke-width:0.976807;stroke-linecap:butt;stroke-linejoin:miter;stroke-miterlimit:4;stroke-dasharray:none;stroke-opacity:1"
           id="path34" /></g><g
         id="g36"><path
           d="m 78.832,12.906 c 0,4.348 -3.527,7.871 -7.875,7.871 -4.348,0 -7.871,-3.523 -7.871,-7.871 0,-4.347 3.523,-7.871 7.871,-7.871 4.348,0 7.875,3.524 7.875,7.871 z"
           style="fill:#3ea8f0;fill-opacity:1;fill-rule:nonzero;stroke:#000000;stroke-width:0.976807;stroke-linecap:butt;stroke-linejoin:miter;stroke-miterlimit:4;stroke-dasharray:none;stroke-opacity:1"
           id="path38" /></g><g
         id="g40"><path
           d="m 20.668,60.176 c 0,4.347 -3.527,7.871 -7.875,7.871 -4.348,0 -7.871,-3.524 -7.871,-7.871 0,-4.348 3.523,-7.875 7.871,-7.875 4.348,0 7.875,3.527 7.875,7.875 z"
           style="fill:#800000;fill-opacity:1;fill-rule:nonzero;stroke:#000000;stroke-width:0.976807;stroke-linecap:butt;stroke-linejoin:miter;stroke-miterlimit:4;stroke-dasharray:none;stroke-opacity:1"
           id="path42" /></g></g></g></svg>
